# xmcd
#
# Track frame offsets:
#	150
#	20977
#	40690
#	56987
#	78315
#	95127
#	112545
#	129070
#	144972
#	164777
#	179392
#	204355
#
# Disc length: 3033 seconds
#
# Revision: 0
# Processed by: cddbd v1.5.2PL0 Copyright (c) Steve Scherf et al.
# Submitted via: audiograbber 1.83.01
#
DISCID=9e0bd70c
DTITLE=Pat Gallagher And The Atomic Playboys - Lost Weekend
DYEAR=1996
DGENRE=Songwriter
TTITLE0=Magnetic North
TTITLE1=The Boomerang Song
TTITLE2=The Next Big Thing
TTITLE3=Maria, Marie
TTITLE4=Engine, Engine #9
TTITLE5=The Power Of Love
TTITLE6=I Would Rather Be Blue
TTITLE7=Everybody Knows
TTITLE8=Lost Weekend
TTITLE9=Me And Jesus
TTITLE10=When My Ship Comes In
TTITLE11=Final New Frontier
EXTD=
EXTT0=
EXTT1=
EXTT2=
EXTT3=
EXTT4=
EXTT5=
EXTT6=
EXTT7=
EXTT8=
EXTT9=
EXTT10=
EXTT11=
PLAYORDER=
